<svg xmlns="http://www.w3.org/2000/svg" viewBox="0-1 24 24">
    <path d="M12 0C5.37 0 0 5.37 0 12c0 5.3 3.438 9.8 8.205 11.387.6.113.82-.258.82-.577 0-.285-.01-1.04-.015-2.04-3.338.724-4.042-1.61-4.042-1.61-.546-1.386-1.333-1.756-1.333-1.756-1.09-.745.083-.73.083-.73 1.205.085 1.838 1.236 1.838 1.236 1.07 1.838 2.806 1.305 3.488.997.108-.776.42-1.305.763-1.605-2.67-.302-5.466-1.336-5.466-5.93 0-1.31.468-2.38 1.236-3.22-.125-.302-.54-1.524.116-3.176 0 0 1.005-.322 3.3 1.23.96-.267 1.98-.4 3-.405 1.02.005 2.04.138 3 .405 2.28-1.552 3.285-1.23 3.285-1.23.657 1.652.242 2.874.117 3.176.768.84 1.235 1.91 1.235 3.22 0 4.608-2.8 5.626-5.475 5.92 .43.372.817 1.1.817 2.22 0 1.605-.015 2.896-.015 3.29 0 .318.22 .692 .825 .575 4.76-1.588 8.195-6.08 8.195-11.385C24 5.37 18.63 0 12 0z" fill="white"/>
</svg>
